<svg xmlns="http://www.w3.org/2000/svg" width="246" height="30.642" viewBox="0 0 246 30.642"><g transform="translate(-154.936 -391.415)"><g transform="translate(154.936 391.415)"><path d="M187.028,397.694a4.675,4.675,0,0,1,4.391-6.279h1.573l8.9,24.363a4.675,4.675,0,0,1-4.391,6.279h-1.572Zm21.731,24.363h1.573a4.675,4.675,0,0,0,4.391-6.279l-8.9-24.363h-1.572a4.675,4.675,0,0,0-4.391,6.279Z" transform="translate(-170.24 -391.415)" fill="#c7c9cb"/><path d="M159.661,422.057h-4.725l13.229-27.966a4.675,4.675,0,0,1,4.226-2.676h5.3L164.7,418.864A5.577,5.577,0,0,1,159.661,422.057Zm17.885-3.192,12.985-27.449h-5.3a4.676,4.676,0,0,0-4.226,2.676L167.78,422.057h4.725A5.576,5.576,0,0,0,177.546,418.864Zm12.6.516,13.229-27.966H198.65a5.577,5.577,0,0,0-5.041,3.192l-12.985,27.449h5.3A4.675,4.675,0,0,0,190.146,419.381Zm9.167-9.681-5.845,12.357h5.3a4.675,4.675,0,0,0,4.226-2.676l6.09-12.873h-4.725A5.578,5.578,0,0,0,199.312,409.7Z" transform="translate(-154.936 -391.415)" fill="#fff"/></g><g transform="translate(225.301 397.475)"><path d="M302.851,411.436a3.24,3.24,0,0,1,3.317,3.468v7.106H303.02v-6.061c0-1.162-.4-1.633-1.414-1.633s-1.684.774-1.684,2.02v5.641h-3.182v-6.061c0-1.128-.37-1.6-1.347-1.6-1.01,0-1.684.724-1.684,2v5.657H290.56V411.638h3.081v1.347a4.063,4.063,0,0,1,2.913-1.549,3.2,3.2,0,0,1,2.913,1.65A4.01,4.01,0,0,1,302.851,411.436Z" transform="translate(-290.56 -407.109)" fill="#fff"/><path d="M323.886,416.858a5.234,5.234,0,0,1,5.019-5.422,4.023,4.023,0,0,1,2.98,1.263v-1.061h3.1v10.339h-3.149v-1.01a4.372,4.372,0,0,1-3.1,1.263C325.856,422.229,323.886,420.174,323.886,416.858Zm5.641-2.526a2.383,2.383,0,0,0-2.459,2.475,2.408,2.408,0,0,0,2.357,2.61,2.488,2.488,0,0,0,2.56-2.526A2.435,2.435,0,0,0,329.527,414.332Z" transform="translate(-306.596 -407.109)" fill="#fff"/><path d="M354.609,414.466c-1.212,0-1.953.741-1.953,2.745v4.765h-3.165V411.638h3.047v1.633A2.8,2.8,0,0,1,355,411.436h.707v3.233A2.544,2.544,0,0,0,354.609,414.466Z" transform="translate(-318.916 -407.109)" fill="#fff"/><path d="M366.674,415.614v4.176h-3.132v-12.9h3.132v6.281l2.946-3.721h3.788l-4.075,4.765,4.378,5.573h-3.957S366.893,415.917,366.674,415.614Z" transform="translate(-325.677 -404.922)" fill="#fff"/><path d="M382.589,416.824a5.167,5.167,0,0,1,5.287-5.388c2.98,0,5.085,1.97,5.085,5.658,0,.252.017.387,0,.623h-7.273a2.288,2.288,0,0,0,2.424,1.818,2.9,2.9,0,0,0,2.239-1.431s1.869,1.078,2.442,1.431a5.407,5.407,0,0,1-4.832,2.694A5,5,0,0,1,382.589,416.824Zm5.254-2.761a2.009,2.009,0,0,0-2.037,1.465h3.923A1.858,1.858,0,0,0,387.843,414.063Z" transform="translate(-334.842 -407.109)" fill="#fff"/><path d="M408.021,419.79h-3.149V412.3h-1.028v-2.846h1.028v-2.559h3.149v2.559h1.666v2.863h-1.666Z" transform="translate(-345.07 -404.922)" fill="#fff"/><path d="M417.441,405a1.894,1.894,0,0,1,3.788-.034,1.922,1.922,0,0,1-1.936,1.92A1.854,1.854,0,0,1,417.441,405Zm3.435,12.965h-3.132V407.624h3.132Z" transform="translate(-351.612 -403.095)" fill="#fff"/><path d="M431.543,421.976h-3.166V411.638h3.132v1.347a3.723,3.723,0,0,1,3.014-1.549,3.551,3.551,0,0,1,3.721,3.435v7.105h-3.233v-6.061c0-.859-.236-1.667-1.616-1.667a1.851,1.851,0,0,0-1.852,1.818Z" transform="translate(-356.874 -407.109)" fill="#fff"/><path d="M449.892,416.605c0-2.795,1.785-5.169,4.513-5.169a3.893,3.893,0,0,1,3.1,1.364v-1.162h3v9.109c0,3.2-2.407,4.866-5.3,4.866-2.542,0-4.765-1.279-5.1-3.6h3.519a1.608,1.608,0,0,0,1.65.842c1.094,0,2.1-.505,2.1-1.633a5.855,5.855,0,0,0-.017-.775,4.744,4.744,0,0,1-2.963,1.2C451.711,421.64,449.892,419.417,449.892,416.605Zm5.237-2.492a2.236,2.236,0,0,0-2.189,2.475,2.2,2.2,0,0,0,2.172,2.424,2.36,2.36,0,0,0,2.408-2.408A2.27,2.27,0,0,0,455.129,414.113Z" transform="translate(-367.227 -407.109)" fill="#fff"/><path d="M486.847,411.436a3.24,3.24,0,0,1,3.317,3.468v7.106h-3.149v-6.061c0-1.162-.4-1.633-1.414-1.633s-1.684.774-1.684,2.02v5.641h-3.182v-6.061c0-1.128-.371-1.6-1.347-1.6-1.011,0-1.684.724-1.684,2v5.657h-3.149V411.638h3.081v1.347a4.065,4.065,0,0,1,2.913-1.549,3.2,3.2,0,0,1,2.913,1.65A4.012,4.012,0,0,1,486.847,411.436Z" transform="translate(-379.094 -407.109)" fill="#c7c9cb"/><path d="M507.232,416.858a5.443,5.443,0,0,1,5.657-5.422,5.45,5.45,0,1,1-.067,10.894A5.574,5.574,0,0,1,507.232,416.858Zm5.641-2.475a2.492,2.492,0,1,0-.017,4.984,2.492,2.492,0,0,0,.017-4.984Z" transform="translate(-394.818 -407.109)" fill="#c7c9cb"/><path d="M534.087,421.976h-3.166V411.638h3.132v1.347a3.724,3.724,0,0,1,3.014-1.549,3.551,3.551,0,0,1,3.721,3.435v7.105h-3.233v-6.061c0-.859-.236-1.667-1.616-1.667a1.851,1.851,0,0,0-1.852,1.818Z" transform="translate(-406.216 -407.109)" fill="#c7c9cb"/><path d="M557.191,415.614v4.176h-3.132v-12.9h3.132v6.281l2.946-3.721h3.788l-4.075,4.765,4.378,5.573h-3.957S557.41,415.917,557.191,415.614Z" transform="translate(-417.35 -404.922)" fill="#c7c9cb"/><path d="M573.106,416.824a5.167,5.167,0,0,1,5.288-5.388c2.98,0,5.084,1.97,5.084,5.658,0,.252.017.387,0,.623H576.2a2.288,2.288,0,0,0,2.424,1.818,2.9,2.9,0,0,0,2.239-1.431s1.869,1.078,2.442,1.431a5.407,5.407,0,0,1-4.832,2.694A5,5,0,0,1,573.106,416.824Zm5.254-2.761a2.009,2.009,0,0,0-2.037,1.465h3.923A1.858,1.858,0,0,0,578.36,414.063Z" transform="translate(-426.515 -407.109)" fill="#c7c9cb"/><path d="M592.578,411.825h3.485l2.256,5.338,2.172-5.338h3.249l-6.011,13.993h-3.317l2.324-5.035Z" transform="translate(-435.884 -407.296)" fill="#c7c9cb"/><path d="M614.073,414.8c0-2,1.666-3.367,3.957-3.367a3.627,3.627,0,0,1,3.384,2.273l-2.374,1.044a1.464,1.464,0,0,0-1.279-.808c-.5,0-.825.219-.825.623,0,1.162,4.765.691,4.765,4.226,0,2.24-1.953,3.435-4.142,3.435a3.949,3.949,0,0,1-3.822-2.155l2.407-1.212a1.862,1.862,0,0,0,1.449.909c.5,0,1.111-.236,1.111-.724C618.7,417.767,614.073,418.441,614.073,414.8Z" transform="translate(-446.065 -407.109)" fill="#c7c9cb"/></g></g></svg>